<?xml version="1.0" encoding="utf-8"?>
<!-- Generator: Adobe Illustrator 24.2.1, SVG Export Plug-In . SVG Version: 6.00 Build 0)  -->
<svg version="1.1" id="Laag_1" xmlns="http://www.w3.org/2000/svg" xmlns:xlink="http://www.w3.org/1999/xlink" x="0px" y="0px"
	 viewBox="0 0 841.9 85" style="enable-background:new 0 0 841.9 85;" xml:space="preserve">
<g>
	<path d="M51.9,13.1c4.2,1.9,7.4,4.6,9.7,8.1c2.3,3.5,3.4,7.6,3.4,12.4c0,4.7-1.1,8.9-3.4,12.4c-2.3,3.5-5.5,6.2-9.7,8.1
		C47.7,56,42.8,57,37.1,57h-13v17.8H9.2V10.3h27.9C42.8,10.3,47.7,11.2,51.9,13.1z M46.5,41.9c2.3-1.9,3.5-4.7,3.5-8.2
		c0-3.6-1.2-6.4-3.5-8.3c-2.3-1.9-5.7-2.9-10.2-2.9H24.1v22.4h12.2C40.7,44.8,44.1,43.9,46.5,41.9z"/>
	<path d="M75.7,10.3h14.9v52.3h32.3v12.2H75.7V10.3z"/>
	<path d="M174.3,60.9h-29.9l-5.7,13.8h-15.3l28.7-64.5h14.7l28.8,64.5H180L174.3,60.9z M169.6,49.6l-10.2-24.7l-10.2,24.7H169.6z"/>
	<path d="M261.5,10.3v64.5h-12.2l-32.1-39.1v39.1h-14.7V10.3h12.3l32.1,39.1V10.3H261.5z"/>
	<path d="M326.7,62.8v12h-49.9V10.3h48.7v12h-33.9v14h29.9v11.6h-29.9v14.9H326.7z"/>
	<path d="M352,22.4h-20.6V10.3h56.2v12.2h-20.6v52.3H352V22.4z"/>
	<path d="M464,60.9h-29.9l-5.7,13.8h-15.3l28.7-64.5h14.7l28.8,64.5h-15.7L464,60.9z M459.3,49.6l-10.2-24.7l-10.2,24.7H459.3z"/>
	<path d="M492.1,10.3H507v64.5h-14.9V10.3z"/>
	<path d="M563.4,74.8l-12.4-18h-0.7h-13v18h-14.9V10.3h27.9c5.7,0,10.7,1,14.9,2.9c4.2,1.9,7.4,4.6,9.7,8.1
		c2.3,3.5,3.4,7.6,3.4,12.4c0,4.8-1.2,8.9-3.5,12.4c-2.3,3.5-5.6,6.1-9.8,8l14.5,20.7H563.4z M559.6,25.3c-2.3-1.9-5.7-2.9-10.2-2.9
		h-12.2v22.5h12.2c4.5,0,7.9-1,10.2-2.9c2.3-2,3.5-4.7,3.5-8.3C563.1,30.1,562,27.3,559.6,25.3z"/>
	<path d="M596.4,73.8c-4.8-1.4-8.6-3.2-11.5-5.4l5.1-11.2c2.8,2,6,3.7,9.9,4.9c3.8,1.2,7.6,1.8,11.4,1.8c4.2,0,7.4-0.6,9.4-1.9
		c2-1.3,3-2.9,3-5c0-1.5-0.6-2.8-1.8-3.8c-1.2-1-2.7-1.8-4.6-2.4c-1.9-0.6-4.4-1.3-7.6-2c-4.9-1.2-8.9-2.3-12.1-3.5
		c-3.1-1.2-5.8-3-8.1-5.6c-2.2-2.6-3.4-6-3.4-10.3c0-3.7,1-7.1,3-10.2s5.1-5.4,9.2-7.2c4.1-1.8,9.1-2.7,15-2.7
		c4.1,0,8.1,0.5,12.1,1.5c3.9,1,7.4,2.4,10.3,4.2l-4.6,11.3c-6-3.4-11.9-5.1-17.9-5.1c-4.2,0-7.3,0.7-9.3,2c-2,1.4-3,3.1-3,5.3
		s1.2,3.9,3.5,4.9c2.3,1.1,5.8,2.1,10.5,3.2c4.9,1.2,8.9,2.3,12.1,3.5c3.1,1.2,5.8,3,8.1,5.5c2.2,2.5,3.4,5.9,3.4,10.2
		c0,3.7-1,7-3.1,10.1c-2.1,3-5.1,5.4-9.3,7.2c-4.1,1.8-9.1,2.7-15,2.7C606.1,75.9,601.2,75.2,596.4,73.8z"/>
	<path d="M661.9,71.5c-5.4-2.9-9.6-6.9-12.6-11.9c-3-5.1-4.6-10.8-4.6-17.1c0-6.3,1.5-12,4.6-17.1s7.2-9,12.6-11.9
		c5.4-2.9,11.4-4.3,18.1-4.3c6.7,0,12.7,1.4,18.1,4.3c5.3,2.9,9.5,6.9,12.6,11.9c3.1,5.1,4.6,10.8,4.6,17.1c0,6.3-1.5,12-4.6,17.1
		c-3.1,5.1-7.3,9-12.6,11.9c-5.3,2.9-11.4,4.3-18.1,4.3C673.3,75.9,667.3,74.4,661.9,71.5z M690.3,60.5c3.1-1.8,5.5-4.2,7.2-7.3
		c1.8-3.1,2.6-6.7,2.6-10.7c0-4-0.9-7.6-2.6-10.7c-1.7-3.1-4.2-5.6-7.2-7.3c-3.1-1.8-6.5-2.6-10.3-2.6c-3.8,0-7.2,0.9-10.3,2.6
		c-3.1,1.7-5.5,4.2-7.2,7.3c-1.8,3.1-2.6,6.7-2.6,10.7c0,4,0.9,7.6,2.6,10.7c1.8,3.1,4.2,5.6,7.2,7.3c3.1,1.8,6.5,2.6,10.3,2.6
		C683.8,63.2,687.2,62.3,690.3,60.5z"/>
	<path d="M741.4,22.3v17h29.8v12h-29.8v23.5h-14.9V10.3h48.7v12H741.4z"/>
	<path d="M799.2,22.4h-20.6V10.3h56.2v12.2h-20.6v52.3h-14.9V22.4z"/>
</g>
</svg>
